<svg class="svg-icon" style="width: 1em; height: 1em;vertical-align:middle ; fill:#5D6679; overflow: hidden;" viewBox="0 0 1024 1024" version="1.1" xmlns="http://www.w3.org/2000/svg"><path d="M180.146 918.098c-16.559 0-30.032-13.367-30.032-29.796l0-73.033c0-72.949 22.066-143.18 63.811-203.094 40.768-58.509 97.366-103.349 163.677-129.669l10.915-4.333-9.258-7.226c-52.175-40.723-82.098-101.573-82.098-166.948 0-117.108 95.929-212.383 213.841-212.383s213.841 95.276 213.841 212.383c0 65.373-29.923 126.223-82.097 166.948l-9.257 7.226 10.913 4.333c66.319 26.321 122.915 71.155 163.679 129.655 41.745 59.909 63.809 130.144 63.807 203.107l0 73.033c0 16.429-13.472 29.796-30.032 29.796l-661.709 0zM511.038 516.385c-165.891 0-300.852 134.08-300.852 298.884l0 43.243 601.633 0 0-43.243c0-164.803-134.929-298.884-300.781-298.884zM511.003 151.201c-84.789 0-153.773 68.547-153.773 152.804 0 84.254 68.983 152.799 153.773 152.799 84.791 0 153.775-68.545 153.775-152.799 0.001-84.257-68.982-152.804-153.775-152.804zM33.102 808.541c-16.559 0-30.032-13.365-30.032-29.792l0-56.495c0-107.167 59.184-204.189 154.455-253.206l7.82-4.023-5.929-6.497c-29.703-32.545-46.062-74.442-46.062-117.97 0-95.967 77.774-174.231 173.996-175.874-0.614 0.979-1.223 1.962-1.827 2.947-14.827 19.391-26.307 40.806-34.16 63.708-46.762 16.503-77.941 59.971-77.941 109.217 0 45.47 26.976 87.019 68.724 105.849l0.197 0.089 0.201 0.076c12.435 4.678 20.47 15.463 20.47 27.476 0 12.311-8.641 23.481-21.534 27.872l-6.883 1.634c-100.99 25.334-171.466 115.259-171.466 218.702l0 26.706 35.09 0c-3.573 19.622-5.561 39.6-5.925 59.583l-59.195 0zM929.316 808.537c-0.364-19.985-2.352-39.961-5.924-59.578l35.085 0 0-26.706c0-103.445-70.475-193.37-171.386-218.679l-6.96-1.653c-12.886-4.39-21.525-15.559-21.525-27.873 0-12.011 8.034-22.797 20.466-27.476l0.201-0.074 0.195-0.089c41.751-18.83 68.729-60.379 68.729-105.849 0-49.251-31.183-92.718-77.951-109.217-7.847-22.906-19.327-44.322-34.155-63.717-0.604-0.986-1.213-1.966-1.828-2.943 96.225 1.643 173.998 79.909 173.998 175.879 0 43.536-16.357 85.431-46.062 117.969l-5.93 6.497 7.822 4.025c95.273 49.015 154.454 146.038 154.45 253.206l0 56.495c0 16.423-13.471 29.786-30.031 29.786l-59.193 0z"/></svg>