<svg width="31" height="30" viewBox="0 0 31 30" fill="none" xmlns="http://www.w3.org/2000/svg">
<rect x="0.5" width="30" height="30" rx="4" fill="#EBFFED"/>
<path d="M19.4397 13.0897H13.3071C13.0688 13.0897 12.8755 12.9127 12.8755 12.6943C12.8755 12.4759 13.0687 12.2988 13.3071 12.2988H19.4394C19.6778 12.2988 19.8711 12.4758 19.8711 12.6943C19.8711 12.9127 19.6778 13.0897 19.4396 13.0897H19.4397Z" fill="#58D365" fill-opacity="0.7"/>
<path d="M19.4397 15.9628H13.3071C13.0688 15.9628 12.8755 15.7858 12.8755 15.5673C12.8755 15.3489 13.0687 15.1719 13.3071 15.1719H19.4394C19.6778 15.1719 19.8711 15.3489 19.8711 15.5673C19.8711 15.7858 19.6778 15.9628 19.4396 15.9628H19.4397Z" fill="#58D365" fill-opacity="0.7"/>
<path d="M13.3706 18.65C13.1322 18.65 12.939 18.473 12.939 18.2546C12.939 18.0362 13.1322 17.8591 13.3706 17.8591C15.6802 17.8591 17.6314 16.7559 17.6314 15.4501C17.6314 14.1442 15.6802 13.0409 13.3706 13.0409C13.1322 13.0409 12.939 12.8639 12.939 12.6455C12.939 12.4271 13.1322 12.25 13.3706 12.25C16.244 12.25 18.4948 13.6556 18.4948 15.45C18.4948 17.2443 16.244 18.65 13.3706 18.65V18.65Z" fill="#58D365" fill-opacity="0.7"/>
<path d="M17.9821 23.3019C17.8672 23.3019 17.7525 23.2601 17.6675 23.1774L13.1096 18.7345C12.9463 18.5753 12.9548 18.3251 13.1285 18.1756C13.3021 18.0261 13.5752 18.0339 13.7386 18.1928L18.2965 22.6357C18.4598 22.7949 18.4513 23.0451 18.2776 23.1947C18.1942 23.2663 18.088 23.3019 17.982 23.3019L17.9821 23.3019Z" fill="#58D365" fill-opacity="0.7"/>
<path d="M4.53206 15.2112H6.61586V26.3248C6.61586 26.7138 6.92149 27.0194 7.31046 27.0194H25.37C25.759 27.0194 26.0646 26.7138 26.0646 26.3248V15.2112H28.1484C28.7597 15.2112 29.0653 14.461 28.6484 14.0166L16.8402 2.20844C16.5623 1.93052 16.1179 1.93052 15.8677 2.20844L4.03225 14.0166C3.61538 14.461 3.921 15.2112 4.53226 15.2112H4.53206ZM16.3402 3.68089L26.4814 13.822H25.3701C24.9812 13.822 24.6755 14.1277 24.6755 14.5166V25.6302H8.00515V14.5166C8.00515 14.1277 7.69952 13.822 7.31055 13.822H6.1993L16.3402 3.68089Z" fill="#58D365" fill-opacity="0.7"/>
</svg>
