<svg width="31" height="30" viewBox="0 0 31 30" fill="none" xmlns="http://www.w3.org/2000/svg">
<rect x="0.5" width="30" height="30" rx="4" fill="#ECEAFF"/>
<path d="M15.3118 2C12.8254 2 10.4408 2.98774 8.68294 4.74572C6.92475 6.50391 5.93701 8.88846 5.93701 11.3751C5.93701 16.375 14.4869 25.7498 14.8496 26.1751C14.9689 26.3038 15.1367 26.3762 15.3121 26.3752C15.4874 26.3762 15.6552 26.3038 15.7745 26.1751L16.562 25.2813V25.7501C16.562 26.0816 16.6938 26.3996 16.9282 26.634C17.1625 26.8684 17.4804 27 17.8121 27H25.312C25.6435 27 25.9613 26.8684 26.1957 26.634C26.4303 26.3996 26.5619 26.0816 26.5619 25.7501V18.2502C26.5619 17.9187 26.4303 17.6006 26.1957 17.3663C25.9613 17.1319 25.6434 17.0003 25.312 17.0003H22.6682C24.0056 14.6877 24.6869 12.8004 24.6869 11.3753C24.6869 9.72968 24.2538 8.11297 23.431 6.68787C22.6082 5.26262 21.4246 4.07924 19.9995 3.2564C18.5744 2.43355 16.9577 2.00043 15.312 2.00043L15.3118 2ZM25.3119 25.7495H17.8119V18.2496H19.6869V20.7497C19.6876 20.9663 19.8003 21.1672 19.9849 21.2804C20.1695 21.3938 20.3997 21.4034 20.5931 21.3059L21.5617 20.8246L22.5304 21.3059H22.5306C22.6176 21.3505 22.7139 21.3741 22.8118 21.3745C22.9288 21.3749 23.0437 21.3425 23.1431 21.2808C23.3262 21.1663 23.4373 20.9656 23.4369 20.7497V18.2496H25.3119L25.3119 25.7495ZM22.187 18.2496V19.7371L21.8743 19.5684C21.6975 19.4793 21.4887 19.4793 21.3118 19.5684L20.968 19.7371V18.2496H22.187ZM20.312 16.9997H17.8119C17.4803 16.9997 17.1624 17.1313 16.928 17.3657C16.6937 17.6001 16.5618 17.9181 16.5618 18.2496V23.3495C16.0556 23.9746 15.6181 24.4682 15.3119 24.8121C13.5307 22.7808 7.18682 15.2936 7.18682 11.3749C7.18682 8.472 8.73556 5.79014 11.2494 4.33837C13.7633 2.8866 16.8604 2.88692 19.374 4.33837C21.8875 5.78981 23.4366 8.47189 23.4366 11.3749C23.4366 12.6811 22.6617 14.6249 21.2115 16.9998L20.312 16.9997Z" fill="#817AF3" fill-opacity="0.6"/>
<path d="M15.3118 7C14.1514 7 13.0388 7.461 12.2183 8.28131C11.3978 9.1018 10.9368 10.2147 10.9368 11.375C10.9368 12.5352 11.3978 13.648 12.2183 14.4685C13.0388 15.289 14.1514 15.7498 15.3118 15.7498C16.4721 15.7498 17.5848 15.289 18.4053 14.4685C19.2258 13.648 19.6868 12.5352 19.6868 11.375C19.6868 10.2147 19.2258 9.1018 18.4053 8.28131C17.5848 7.46103 16.4721 7 15.3118 7ZM15.3118 14.4999C14.4829 14.4999 13.6881 14.1707 13.1022 13.5846C12.5161 12.9986 12.1869 12.2037 12.1869 11.375C12.1869 10.5461 12.5161 9.75134 13.1022 9.16523C13.6882 8.57927 14.4829 8.24991 15.3118 8.24991C16.1407 8.24991 16.9355 8.57929 17.5214 9.16523C18.1075 9.75134 18.4367 10.5461 18.4367 11.375C18.4367 12.2037 18.1075 12.9987 17.5214 13.5846C16.9354 14.1707 16.1407 14.4999 15.3118 14.4999Z" fill="#817AF3" fill-opacity="0.6"/>
</svg>
