<svg width="24" height="24" viewBox="0 0 24 24" fill="none" xmlns="http://www.w3.org/2000/svg">
<path d="M7.187 21.3774L7.18698 21.3774L7.18863 21.379C7.21922 21.4096 7.25378 21.4366 7.2959 21.4553C7.33846 21.4742 7.38353 21.4824 7.43226 21.4824H21.753C21.8498 21.4824 21.9382 21.4497 22.0028 21.3852C22.0673 21.3207 22.1 21.2323 22.1 21.1354L22.0998 6.81464C22.0998 6.68688 22.0357 6.57067 21.9191 6.52621L15.2813 2.59261C15.2551 2.55755 15.2202 2.53728 15.1847 2.52717C15.1493 2.51707 15.1121 2.51714 15.0901 2.51718L15.0863 2.51719H2.24698C2.15022 2.51719 2.06177 2.54986 1.99725 2.61434C1.93273 2.67883 1.9 2.76729 1.9 2.86417V15.7035C1.9 15.7521 1.90821 15.7972 1.92709 15.8397C1.94561 15.8815 1.97219 15.9158 2.00248 15.9462C2.00277 15.9465 2.00306 15.9468 2.00335 15.9471L7.187 21.3774ZM21.406 20.7884H7.77908V7.16148H12.5173V10.7651C12.5173 10.8619 12.5499 10.9503 12.6144 11.0149C12.6789 11.0794 12.7674 11.1121 12.8643 11.1121H16.0741C16.1709 11.1121 16.2593 11.0794 16.3239 11.015C16.3884 10.9505 16.4211 10.862 16.4211 10.7651L16.4209 7.16148H21.406L21.406 20.7884ZM13.2111 10.4182V7.16157H15.7272V10.4182H13.2111ZM11.5402 3.21093H14.9849L20.4748 6.46758H16.4253L11.5402 3.21093ZM12.9685 6.46775L8.08336 3.21108L10.2908 3.21093L15.1759 6.4676L12.9685 6.46775ZM7.54007 6.46775L3.28304 3.21092L6.83396 3.21093L11.7191 6.46759L7.54007 6.46775ZM2.59407 15.5645V3.56002L7.08535 6.98753V20.2685L2.59407 15.5645Z" fill="#5D6679" stroke="#5D6679" stroke-width="0.2"/>
</svg>
