<svg width="31" height="30" viewBox="0 0 31 30" fill="none" xmlns="http://www.w3.org/2000/svg">
<rect x="0.5" width="30" height="30" rx="4" fill="#FFEEDB"/>
<path d="M6.90248 2.90021C6.33598 2.90021 5.76805 3.18245 5.45012 3.65814L2.88976 7.23069L2.88514 7.23713L2.88159 7.24422C2.88041 7.24658 2.8792 7.249 2.87796 7.25147C2.851 7.3052 2.81162 7.38369 2.81162 7.4676V24.9799C2.81162 25.8987 3.54134 26.6287 4.46038 26.6287H26.3508C27.2708 26.6287 27.9995 25.8678 27.9995 24.9799L27.9993 7.48752C28.0115 7.45306 28.0136 7.41949 28.0101 7.38873H28.0644L27.951 7.23048L25.3897 3.65659L25.389 3.6557C25.0438 3.18502 24.5083 2.9 23.9383 2.9L17.7434 2.90021H6.90248ZM18.2988 7.51111V12.7522L15.4681 11.2214L15.4201 11.1955L15.3723 11.2218L12.5424 12.781V7.54104L13.6493 3.69576H17.2212L18.2988 7.51111ZM6.09058 4.10054L6.09059 4.10055L6.09113 4.09977C6.27879 3.83174 6.57377 3.69576 6.90275 3.69576H12.8164L11.8605 7.06965H3.96991L6.09058 4.10054ZM18.7361 13.4862L18.7446 13.4825L18.7522 13.4775C18.9563 13.3415 19.0947 13.1029 19.0947 12.8582L19.0943 7.86528H27.2335L27.2337 24.9798C27.2337 25.4585 26.8339 25.8329 26.3806 25.8329H4.46039C3.98163 25.8329 3.60724 25.433 3.60724 24.9798V7.86528H11.7464V12.8582C11.7464 13.1353 11.8869 13.3431 12.0889 13.4775C12.1984 13.5505 12.3382 13.5836 12.472 13.5836C12.5774 13.5836 12.7142 13.5501 12.8213 13.4801L15.4206 12.0783L18.0227 13.4817C18.269 13.6217 18.5129 13.5818 18.7361 13.4862ZM23.9385 3.69576C24.2616 3.69576 24.5605 3.85729 24.7519 4.10227L26.8714 7.06967H19.0106L18.0547 3.69578L23.9385 3.69576Z" fill="#DBA362" stroke="#DBA362" stroke-width="0.2"/>
<path d="M13.0378 7.06992H12.9378V7.16992V7.76553V7.86553H13.0378H17.8032H17.9032V7.76553V7.16992V7.06992H17.8032H13.0378Z" fill="#DBA362" stroke="#DBA362" stroke-width="0.2"/>
</svg>
