<svg width="30" height="30" viewBox="0 0 30 30" fill="none" xmlns="http://www.w3.org/2000/svg">
<rect width="30" height="30" rx="4" fill="#E8F1FD"/>
<path d="M18.6193 8.33914C19.2298 8.33914 19.8155 8.09663 20.2474 7.66486C20.6792 7.23305 20.9217 6.64732 20.9217 6.03676C20.9217 5.42602 20.6791 4.84049 20.2474 4.40866C19.8156 3.97686 19.2298 3.73438 18.6193 3.73438C18.0085 3.73438 17.423 3.97689 16.9912 4.40866C16.5594 4.84046 16.3167 5.42597 16.3167 6.03676C16.3167 6.64732 16.5594 7.23303 16.9912 7.66486C17.423 8.09666 18.0085 8.33914 18.6193 8.33914ZM18.6193 5.04994C18.8808 5.04994 19.1318 5.15387 19.317 5.33903C19.5019 5.52395 19.6059 5.77496 19.6059 6.03675C19.6059 6.29831 19.5019 6.54932 19.317 6.73448C19.1318 6.9194 18.8808 7.02357 18.6193 7.02357C18.3575 7.02357 18.1065 6.9194 17.9213 6.73448C17.7364 6.54932 17.6324 6.29832 17.6324 6.03675C17.6324 5.77497 17.7364 5.52396 17.9213 5.33903C18.1065 5.15388 18.3575 5.04994 18.6193 5.04994Z" fill="#629FF4"/>
<path d="M22.2373 10.6422C22.2373 11.253 22.4798 11.8385 22.9116 12.2703C23.3434 12.7021 23.9291 12.9446 24.5397 12.9446C25.1504 12.9446 25.736 12.7021 26.1678 12.2703C26.5996 11.8385 26.8423 11.253 26.8423 10.6422C26.8423 10.0317 26.5996 9.44596 26.1678 9.01413C25.736 8.58233 25.1505 8.33984 24.5397 8.33984C23.9291 8.33984 23.3434 8.58236 22.9116 9.01413C22.4798 9.44593 22.2373 10.0317 22.2373 10.6422ZM25.5265 10.6422C25.5265 10.904 25.4226 11.155 25.2376 11.3399C25.0525 11.5251 24.8015 11.629 24.5397 11.629C24.2781 11.629 24.0271 11.5251 23.842 11.3399C23.657 11.155 23.5531 10.904 23.5531 10.6422C23.5531 10.3807 23.657 10.1297 23.842 9.9445C24.0271 9.75958 24.2781 9.65541 24.5397 9.65541C24.8015 9.65541 25.0525 9.75958 25.2376 9.9445C25.4226 10.1297 25.5265 10.3807 25.5265 10.6422Z" fill="#629FF4"/>
<path d="M18.2279 12.6516C18.3681 12.7557 18.5443 12.7996 18.7171 12.7736C18.8899 12.7477 19.0452 12.6541 19.1489 12.5135L24.7405 4.94829V4.94852C24.9566 4.65598 24.8949 4.24369 24.6024 4.02754C24.3098 3.81118 23.8975 3.87313 23.6814 4.16566L18.0898 11.7308V11.7306C17.9856 11.871 17.9418 12.047 17.9677 12.2198C17.9937 12.3925 18.0873 12.5481 18.2279 12.6516L18.2279 12.6516Z" fill="#629FF4"/>
<path d="M8.09378 9.32617C7.15977 9.32617 2.5022 9.42162 2.5022 11.2998C2.5022 13.178 7.15977 13.2735 8.09378 13.2735C9.0278 13.2735 13.6854 13.178 13.6854 11.2998C13.6856 9.42162 9.02804 9.32617 8.09378 9.32617ZM8.09378 11.9576C5.89671 11.9576 4.47554 11.5793 3.96254 11.2998C4.4758 11.0201 5.89671 10.6418 8.09378 10.6418C10.2909 10.6418 11.712 11.0201 12.225 11.2996C11.712 11.5793 10.2911 11.9576 8.09378 11.9576Z" fill="#629FF4"/>
<path d="M13.0276 12.7795C12.7018 12.7752 12.4219 13.0103 12.3698 13.332C12.0802 13.6082 10.5772 14.0951 8.09376 14.0951C5.61059 14.0951 4.09743 13.6018 3.81797 13.332C3.78883 12.9688 3.47083 12.6978 3.10739 12.7267C2.74419 12.7559 2.47321 13.0739 2.50211 13.4373C2.50211 15.3155 7.15968 15.4109 8.0937 15.4109C9.02772 15.4109 13.6853 15.3155 13.6853 13.4373H13.6855C13.6855 13.2627 13.6162 13.0954 13.4928 12.972C13.3694 12.8488 13.2021 12.7795 13.0275 12.7795H13.0276Z" fill="#629FF4"/>
<path d="M13.0276 15.0822C12.7018 15.0781 12.4219 15.3131 12.3698 15.6347C12.0802 15.911 10.5772 16.3978 8.09376 16.3978C5.61059 16.3978 4.09743 15.9045 3.81797 15.6347C3.78883 15.2715 3.47083 15.0006 3.10739 15.0295C2.74419 15.0586 2.47321 15.3766 2.50211 15.74C2.50211 17.6182 7.15968 17.7137 8.0937 17.7137C9.02772 17.7137 13.6853 17.6182 13.6853 15.74H13.6855C13.6855 15.5657 13.6162 15.3982 13.4928 15.275C13.3694 15.1515 13.2021 15.0822 13.0275 15.0822H13.0276Z" fill="#629FF4"/>
<path d="M13.0276 17.3848C12.7018 17.3807 12.4219 17.6156 12.3698 17.9373C12.0802 18.2135 10.5772 18.7004 8.09376 18.7004C5.61059 18.7004 4.09743 18.2071 3.81797 17.9373C3.78883 17.5741 3.47083 17.3031 3.10739 17.3322C2.74419 17.3611 2.47321 17.6794 2.50211 18.0426C2.50211 19.9208 7.15968 20.0162 8.0937 20.0162C9.02772 20.0162 13.6853 19.9208 13.6853 18.0426H13.6855C13.6855 17.8682 13.6162 17.7007 13.4928 17.5775C13.3694 17.4541 13.2021 17.3848 13.0275 17.3848H13.0276Z" fill="#629FF4"/>
<path d="M13.0276 19.6875C12.7018 19.6834 12.4219 19.9183 12.3698 20.2402C12.0802 20.5165 10.5772 21.0033 8.09376 21.0033C5.61059 21.0033 4.09743 20.5098 3.81797 20.2402C3.78883 19.8768 3.47083 19.6058 3.10739 19.635C2.74419 19.6641 2.47321 19.9821 2.50211 20.3453C2.50211 22.2235 7.15968 22.3189 8.0937 22.3189C9.02772 22.3189 13.6853 22.2235 13.6853 20.3453H13.6855C13.6855 20.1709 13.6162 20.0037 13.4928 19.8802C13.3694 19.7568 13.2021 19.6875 13.0275 19.6875H13.0276Z" fill="#629FF4"/>
<path d="M13.0276 21.9902C12.7018 21.9861 12.4219 22.2213 12.3698 22.543C12.0802 22.8192 10.5772 23.3061 8.09376 23.3061C5.61059 23.3061 4.09743 22.8125 3.81797 22.543C3.78883 22.1795 3.47083 21.9086 3.10739 21.9377C2.74419 21.9668 2.47321 22.2848 2.50211 22.6483C2.50211 24.5265 7.15968 24.6219 8.0937 24.6219C9.02772 24.6219 13.6853 24.5265 13.6853 22.6483H13.6855C13.6855 22.4737 13.6162 22.3064 13.4928 22.183C13.3694 22.0595 13.2021 21.9903 13.0275 21.9903L13.0276 21.9902Z" fill="#629FF4"/>
<path d="M21.9085 19.5215C22.8425 19.5215 27.5001 19.4261 27.5001 17.5479C27.5001 15.6697 22.8425 15.5742 21.9085 15.5742C20.9745 15.5742 16.3169 15.6697 16.3169 17.5479C16.3167 19.4262 20.9742 19.5215 21.9085 19.5215ZM21.9085 16.8901C24.1056 16.8901 25.5267 17.2684 26.0397 17.5479C25.5265 17.8275 24.1056 18.2059 21.9085 18.2059C19.7114 18.2059 18.2902 17.8275 17.7772 17.5481C18.2903 17.2684 19.7112 16.8903 21.9085 16.8903V16.8901Z" fill="#629FF4"/>
<path d="M26.8422 19.0293C26.5162 19.0252 26.2366 19.2601 26.1842 19.5818C25.8947 19.858 24.3916 20.3449 21.9082 20.3449C19.425 20.3449 17.9119 19.8516 17.6324 19.5818C17.6033 19.2186 17.2853 18.9476 16.9218 18.9768C16.5586 19.0057 16.2877 19.3239 16.3166 19.6871C16.3166 21.5653 20.9741 21.6607 21.9082 21.6607C22.8422 21.6607 27.4997 21.5653 27.4997 19.6871H27.5C27.5 19.5127 27.4307 19.3452 27.3072 19.222C27.1838 19.0986 27.0165 19.0293 26.8422 19.0293H26.8422Z" fill="#629FF4"/>
<path d="M26.8422 21.332C26.5162 21.3279 26.2366 21.5629 26.1842 21.8848C25.8947 22.161 24.3916 22.6479 21.9082 22.6479C19.425 22.6479 17.9119 22.1543 17.6324 21.8848C17.6033 21.5213 17.2853 21.2504 16.9218 21.2795C16.5586 21.3086 16.2877 21.6266 16.3166 21.9898C16.3166 23.868 20.9741 23.9635 21.9082 23.9635C22.8422 23.9635 27.4997 23.868 27.4997 21.9898H27.5C27.5 21.8155 27.4307 21.6482 27.3072 21.5248C27.1838 21.4013 27.0165 21.332 26.8422 21.332H26.8422Z" fill="#629FF4"/>
<path d="M26.8422 23.6348C26.5162 23.6307 26.2366 23.8658 26.1842 24.1875C25.8947 24.4637 24.3916 24.9506 21.9082 24.9506C19.425 24.9506 17.9119 24.4571 17.6324 24.1875C17.6033 23.8241 17.2853 23.5531 16.9218 23.5822C16.5586 23.6114 16.2877 23.9294 16.3166 24.2928C16.3166 26.171 20.9741 26.2664 21.9082 26.2664C22.8422 26.2664 27.4997 26.171 27.4997 24.2928H27.5C27.5 24.1182 27.4307 23.951 27.3072 23.8275C27.1838 23.7041 27.0165 23.6348 26.8422 23.6348L26.8422 23.6348Z" fill="#629FF4"/>
</svg>
