<svg width="20" height="20" viewBox="0 0 20 20" fill="none" xmlns="http://www.w3.org/2000/svg">
<path d="M19.7275 18.4093L14.9401 13.6226C14.697 13.3795 14.3534 13.3025 14.0431 13.3844L13.0159 12.3573C14.1747 11.0448 14.8845 9.32667 14.8845 7.44218C14.8845 3.33871 11.5462 0 7.44261 0C3.33847 0 -0.000244141 3.33871 -0.000244141 7.44285C-0.000244141 11.5467 3.33847 14.885 7.44261 14.885C9.32684 14.885 11.0449 14.1755 12.3577 13.0164L13.3848 14.0436C13.3029 14.354 13.3796 14.6972 13.6231 14.9406L18.4097 19.727C18.5921 19.9093 18.83 20 19.0686 20C19.3072 20 19.5454 19.909 19.7274 19.727C20.0911 19.3633 20.0911 18.7733 19.7274 18.4093L19.7275 18.4093ZM0.931682 7.44254C0.931682 3.85288 3.85211 0.931868 7.44236 0.931868C11.0326 0.931868 13.9527 3.85288 13.9527 7.44287C13.9527 11.0325 11.0319 13.9532 7.44236 13.9532C3.85277 13.9532 0.931682 11.0325 0.931682 7.44254Z" fill="#858D9D"/>
</svg>
