<svg width="20" height="20" viewBox="0 0 20 20" fill="none" xmlns="http://www.w3.org/2000/svg">
<g clip-path="url(#clip0_3093_868)">
<path d="M9.99992 12.4997C11.3806 12.4997 12.4999 11.3804 12.4999 9.99967C12.4999 8.61896 11.3806 7.49967 9.99992 7.49967C8.61921 7.49967 7.49992 8.61896 7.49992 9.99967C7.49992 11.3804 8.61921 12.4997 9.99992 12.4997Z" stroke="#5D6679" stroke-width="1.2" stroke-linecap="round" stroke-linejoin="round"/>
<path d="M16.1666 12.4997C16.0557 12.751 16.0226 13.0298 16.0716 13.3002C16.1206 13.5705 16.2495 13.8199 16.4416 14.0163L16.4916 14.0663C16.6465 14.2211 16.7695 14.4049 16.8533 14.6073C16.9372 14.8096 16.9804 15.0265 16.9804 15.2455C16.9804 15.4645 16.9372 15.6814 16.8533 15.8837C16.7695 16.0861 16.6465 16.2699 16.4916 16.4247C16.3368 16.5796 16.153 16.7026 15.9507 16.7864C15.7483 16.8703 15.5314 16.9135 15.3124 16.9135C15.0934 16.9135 14.8765 16.8703 14.6742 16.7864C14.4719 16.7026 14.288 16.5796 14.1332 16.4247L14.0833 16.3747C13.8869 16.1826 13.6374 16.0537 13.3671 16.0047C13.0967 15.9557 12.8179 15.9887 12.5666 16.0997C12.3201 16.2053 12.1099 16.3807 11.9618 16.6043C11.8138 16.8279 11.7343 17.0899 11.7333 17.358V17.4997C11.7333 17.9417 11.5577 18.3656 11.2451 18.6782C10.9325 18.9907 10.5086 19.1663 10.0666 19.1663C9.62456 19.1663 9.20063 18.9907 8.88807 18.6782C8.57551 18.3656 8.39992 17.9417 8.39992 17.4997V17.4247C8.39347 17.1488 8.30418 16.8813 8.14368 16.6569C7.98317 16.4325 7.75886 16.2616 7.49992 16.1663C7.24857 16.0554 6.96976 16.0223 6.69943 16.0713C6.4291 16.1204 6.17965 16.2492 5.98325 16.4413L5.93325 16.4913C5.77846 16.6463 5.59465 16.7692 5.39232 16.8531C5.18999 16.937 4.97311 16.9802 4.75408 16.9802C4.53506 16.9802 4.31818 16.937 4.11585 16.8531C3.91352 16.7692 3.72971 16.6463 3.57492 16.4913C3.41996 16.3366 3.29703 16.1527 3.21315 15.9504C3.12928 15.7481 3.08611 15.5312 3.08611 15.3122C3.08611 15.0931 3.12928 14.8763 3.21315 14.6739C3.29703 14.4716 3.41996 14.2878 3.57492 14.133L3.62492 14.083C3.81703 13.8866 3.94591 13.6372 3.99492 13.3668C4.04394 13.0965 4.01085 12.8177 3.89992 12.5663C3.79428 12.3199 3.61888 12.1097 3.39531 11.9616C3.17173 11.8135 2.90974 11.7341 2.64159 11.733H2.49992C2.05789 11.733 1.63397 11.5574 1.32141 11.2449C1.00885 10.9323 0.833252 10.5084 0.833252 10.0663C0.833252 9.62431 1.00885 9.20039 1.32141 8.88783C1.63397 8.57527 2.05789 8.39967 2.49992 8.39967H2.57492C2.85075 8.39322 3.11826 8.30394 3.34267 8.14343C3.56708 7.98293 3.73801 7.75862 3.83325 7.49967C3.94418 7.24833 3.97727 6.96951 3.92826 6.69918C3.87924 6.42885 3.75037 6.17941 3.55825 5.98301L3.50825 5.93301C3.35329 5.77822 3.23036 5.5944 3.14649 5.39207C3.06261 5.18974 3.01944 4.97287 3.01944 4.75384C3.01944 4.53481 3.06261 4.31794 3.14649 4.11561C3.23036 3.91328 3.35329 3.72946 3.50825 3.57467C3.66304 3.41971 3.84685 3.29678 4.04918 3.21291C4.25151 3.12903 4.46839 3.08586 4.68742 3.08586C4.90644 3.08586 5.12332 3.12903 5.32565 3.21291C5.52798 3.29678 5.7118 3.41971 5.86658 3.57467L5.91658 3.62467C6.11298 3.81679 6.36243 3.94566 6.63276 3.99468C6.90309 4.04369 7.1819 4.0106 7.43325 3.89967H7.49992C7.74639 3.79404 7.9566 3.61864 8.10466 3.39506C8.25272 3.17149 8.33218 2.9095 8.33325 2.64134V2.49967C8.33325 2.05765 8.50885 1.63372 8.82141 1.32116C9.13397 1.0086 9.55789 0.833008 9.99992 0.833008C10.4419 0.833008 10.8659 1.0086 11.1784 1.32116C11.491 1.63372 11.6666 2.05765 11.6666 2.49967V2.57467C11.6677 2.84283 11.7471 3.10482 11.8952 3.3284C12.0432 3.55197 12.2534 3.72737 12.4999 3.83301C12.7513 3.94394 13.0301 3.97703 13.3004 3.92801C13.5707 3.879 13.8202 3.75012 14.0166 3.55801L14.0666 3.50801C14.2214 3.35305 14.4052 3.23012 14.6075 3.14624C14.8098 3.06237 15.0267 3.0192 15.2458 3.0192C15.4648 3.0192 15.6817 3.06237 15.884 3.14624C16.0863 3.23012 16.2701 3.35305 16.4249 3.50801C16.5799 3.6628 16.7028 3.84661 16.7867 4.04894C16.8706 4.25127 16.9137 4.46815 16.9137 4.68717C16.9137 4.9062 16.8706 5.12308 16.7867 5.32541C16.7028 5.52774 16.5799 5.71155 16.4249 5.86634L16.3749 5.91634C16.1828 6.11274 16.0539 6.36219 16.0049 6.63252C15.9559 6.90285 15.989 7.18166 16.0999 7.43301V7.49967C16.2056 7.74615 16.381 7.95635 16.6045 8.10442C16.8281 8.25248 17.0901 8.33194 17.3583 8.33301H17.4999C17.9419 8.33301 18.3659 8.5086 18.6784 8.82116C18.991 9.13372 19.1666 9.55765 19.1666 9.99967C19.1666 10.4417 18.991 10.8656 18.6784 11.1782C18.3659 11.4907 17.9419 11.6663 17.4999 11.6663H17.4249C17.1568 11.6674 16.8948 11.7469 16.6712 11.8949C16.4476 12.043 16.2722 12.2532 16.1666 12.4997Z" stroke="#5D6679" stroke-width="1.2" stroke-linecap="round" stroke-linejoin="round"/>
</g>
<defs>
<clipPath id="clip0_3093_868">
<rect width="20" height="20" fill="white"/>
</clipPath>
</defs>
</svg>
