<svg width="30" height="30" viewBox="0 0 30 30" fill="none" xmlns="http://www.w3.org/2000/svg">
<rect width="30" height="30" rx="4" fill="#E5F7FD"/>
<path d="M14.8879 4C8.88448 4 4 8.88448 4 14.8879C4 17.5721 4.97821 20.0305 6.59438 21.9305C6.61507 21.9624 6.63881 21.9926 6.66653 22.0203C6.6728 22.0266 6.67982 22.0306 6.68609 22.0364C8.68372 24.3253 11.6187 25.7756 14.888 25.7756C18.1572 25.7756 21.0921 24.3253 23.0899 22.0364C23.0961 22.0308 23.1035 22.0264 23.1094 22.0203C23.1371 21.9926 23.1611 21.962 23.1816 21.9305C24.7977 20.0303 25.7759 17.5718 25.7759 14.8879C25.7759 8.88448 20.8913 4 14.8879 4ZM14.8879 24.687C12.1052 24.687 9.59171 23.5193 7.80638 21.6504L8.55221 20.9046C9.27275 20.1842 10.2304 19.7874 11.2488 19.7874H18.5271C19.5454 19.7874 20.5031 20.1842 21.2235 20.9044L21.9693 21.6502C20.1841 23.5191 17.6707 24.687 14.8879 24.687ZM22.6795 20.8209L21.9933 20.1347C21.0673 19.2087 19.8364 18.6985 18.5271 18.6985H11.2488C9.93939 18.6985 8.70867 19.2087 7.78267 20.1347L7.09648 20.8209C5.83821 19.1728 5.08879 17.1165 5.08879 14.8879C5.08879 9.48482 9.48448 5.08884 14.8879 5.08884C20.291 5.08884 24.687 9.48453 24.687 14.8879C24.687 17.1166 23.9376 19.1729 22.6795 20.8209ZM14.8879 8.8996C12.4866 8.8996 10.5326 10.8533 10.5326 13.2548C10.5326 15.6561 12.4864 17.6101 14.8879 17.6101C17.2891 17.6101 19.2431 15.6564 19.2431 13.2548C19.2431 10.8533 17.2892 8.8996 14.8879 8.8996ZM14.8879 16.5211C13.0868 16.5211 11.6216 15.0559 11.6216 13.2548C11.6216 11.4537 13.0868 9.98848 14.8879 9.98848C16.689 9.98848 18.1542 11.4537 18.1542 13.2548C18.1542 15.0559 16.689 16.5211 14.8879 16.5211Z" fill="#24B8F1"/>
</svg>
