<svg width="24" height="24" viewBox="0 0 24 24" fill="none" xmlns="http://www.w3.org/2000/svg">
<path d="M11.9999 2C6.48613 2 2 6.48613 2 11.9999C2 14.4652 2.89843 16.7231 4.38279 18.4682C4.4018 18.4975 4.4236 18.5252 4.44906 18.5507C4.45482 18.5564 4.46127 18.5601 4.46702 18.5655C6.30174 20.6677 8.99734 21.9997 12 21.9997C15.0027 21.9997 17.6982 20.6677 19.533 18.5655C19.5387 18.5603 19.5455 18.5562 19.5509 18.5507C19.5764 18.5252 19.5984 18.4971 19.6172 18.4682C21.1016 16.7229 22 14.465 22 11.9999C22 6.48613 17.5139 2 12.0001 2H11.9999ZM11.9999 20.9999C9.44414 20.9999 7.13567 19.9274 5.49595 18.2109L6.18095 17.5259C6.84273 16.8643 7.72232 16.4998 8.65758 16.4998H15.3424C16.2776 16.4998 17.1572 16.8643 17.8188 17.5257L18.5038 18.2107C16.8642 19.9272 14.5557 20.9999 11.9998 20.9999H11.9999ZM19.1561 17.449L18.5259 16.8188C17.6754 15.9683 16.5449 15.4998 15.3424 15.4998H8.65758C7.455 15.4998 6.32465 15.9683 5.47417 16.8188L4.84395 17.449C3.68829 15.9354 2.99999 14.0468 2.99999 12C2.99999 7.03751 7.03719 3.00004 11.9999 3.00004C16.9624 3.00004 20.9999 7.03724 20.9999 12C20.9999 14.0469 20.3116 15.9355 19.1561 17.449H19.1561ZM11.9999 6.50001C9.79449 6.50001 7.99986 8.29441 7.99986 10.5001C7.99986 12.7055 9.79427 14.5001 11.9999 14.5001C14.2054 14.5001 16 12.7057 16 10.5001C16 8.29441 14.2054 6.50001 11.9999 6.50001ZM11.9999 13.5C10.3457 13.5 8.99999 12.1542 8.99999 10.5C8.99999 8.84579 10.3457 7.50009 11.9999 7.50009C13.6541 7.50009 14.9999 8.84584 14.9999 10.5C14.9999 12.1543 13.6541 13.5 11.9999 13.5Z" fill="#5D6679"/>
</svg>
